Coordinates
nRows=7
nColumns=24

# SIMM Motion File Header:
name Coordinates
datacolumns 24
datarows 7
otherdata 1
range 1.00100000000000060000 1.01550000000000210000
endheader
time	pelvis_tx	pelvis_ty	pelvis_tz	pelvis_tilt	pelvis_list	pelvis_rotation	hip_flexion_r	hip_adduction_r	hip_rotation_r	knee_angle_r	ankle_angle_r	subtalar_angle_r	mtp_angle_r	hip_flexion_l	hip_adduction_l	hip_rotation_l	knee_angle_l	ankle_angle_l	subtalar_angle_l	mtp_angle_l	lumbar_extension	lumbar_bending	lumbar_rotation
      1.00100000000000060000	      0.59085416799256962000	      1.04533449546293440000	      0.04906121163517843800	      5.19527401853599270000	     -0.01861006282494674300	      0.35142414722930537000	     -3.21312000904394910000	      1.73217203614119430000	     -4.10211615456102760000	    -11.42066888252900400000	      7.94151246371329660000	      0.45614318146735389000	      1.37049643265579710000	     18.49167060506241700000	     -3.21557338336263140000	     -4.37732301017653570000	    -57.59936366642850900000	      2.29283037097598630000	     -1.56306245649634310000	     -2.07900918584895720000	    -16.24159508908938700000	      1.82745573272357560000	      0.71083634095139814000
      1.00350000000000140000	      0.59052121769107513000	      1.04539966232007700000	      0.04925734873246374900	      5.19738787758284550000	     -0.01603526163186805000	      0.30918682722247187000	     -3.42976200035799520000	      1.74265017968733500000	     -4.08124693307407590000	    -11.29732404854195100000	      7.94085242960880320000	      0.43836212180017919000	      1.42899188291275190000	     18.62323442614319200000	     -3.20823199403130130000	     -4.46496918508746800000	    -57.00548212939398200000	      2.27411528051919420000	     -1.54493795621791150000	     -2.04825462748689140000	    -16.26499085172929100000	      1.80208105386934390000	      0.76447158871649534000
      1.00600000000000220000	      0.59018743905052795000	      1.04545495925525400000	      0.04945085406045493500	      5.19894799228018730000	     -0.01527419658785477700	      0.26761938945034630000	     -3.64474943948423570000	      1.75438520506373100000	     -4.06103660370001580000	    -11.17693992316165100000	      7.96077633075513710000	      0.42662992189466226000	      1.45390571841419520000	     18.74908889554728100000	     -3.20522232883433930000	     -4.55935536530576080000	    -56.39674979337469600000	      2.24990195027937600000	     -1.52604586461981180000	     -2.01558931552686670000	    -16.28778110449554400000	      1.77857707299951540000	      0.81720873444023623000
      1.00850000000000310000	      0.58985303060955874000	      1.04549995813393810000	      0.04964172375292026000	      5.19982304629382330000	     -0.01653300849527364700	      0.22669115477122212000	     -3.85796113991371480000	      1.76760841469386420000	     -4.04126943864434280000	    -11.05987534449875700000	      8.00909444687710700000	      0.42327527538637216000	      1.43235956187048390000	     18.86935617838073400000	     -3.20665002436234440000	     -4.66042334841438600000	    -55.77337829967089500000	      2.22108050628323110000	     -1.50833379319228380000	     -1.98309359734948280000	    -16.30978732703115600000	      1.75718494488926290000	      0.86914783750078595000
      1.01050000000000040000	      0.58958520812272786000	      1.04552874673944560000	      0.04979218494544336600	      5.20011286186181640000	     -0.01926653232548898200	      0.19463683442182941000	     -4.02758181695064540000	      1.77960018657404010000	     -4.02590015429446350000	    -10.96787930867983400000	      8.06299349534284100000	      0.42510183710172045000	      1.38976841962018050000	     18.96150486426109400000	     -3.21109883428746960000	     -4.74571687961136310000	    -55.26430536807082900000	      2.19496760278971740000	     -1.49610844134152550000	     -1.95800118616254040000	    -16.32690238539796500000	      1.74196061401148090000	      0.90998555116866386000
      1.01300000000000120000	      0.58925024317133068000	      1.04555611617612600000	      0.04997704286066782800	      5.20005533210842950000	     -0.02531371564246419000	      0.15579971789562314000	     -4.23895742087739350000	      1.79699087379576940000	     -4.00735539235249580000	    -10.85333272885895700000	      8.13475416431640320000	      0.42756510786962010000	      1.32884233515389690000	     19.07163837353454400000	     -3.22108777469564790000	     -4.85709238821657150000	    -54.61528095817502800000	      2.15816940273926460000	     -1.48052124652505370000	     -1.92550908370588900000	    -16.34777218000999000000	      1.72590573596558740000	      0.95991618370390652000
      1.01550000000000210000	      0.58891517710874652000	      1.04557427721378460000	      0.05015822359720115800	      5.19949269402206850000	     -0.03493784682273753900	      0.11843351587352353000	     -4.44991176387889280000	      1.81784049178598740000	     -3.98942346033677350000	    -10.73755520904095600000	      8.18829035265031460000	      0.42281356953709548000	      1.29684692318653010000	     19.17628111541963800000	     -3.23654428282847690000	     -4.97332458713143750000	    -53.95243938623429600000	      2.11671359968429670000	     -1.46433834689017690000	     -1.89131525100604760000	    -16.36802277101194700000	      1.71392052611384420000	      1.00868561010472410000
